<svg xmlns="http://www.w3.org/2000/svg" xmlns:xlink="http://www.w3.org/1999/xlink" width="200px" height="40px" viewBox="0 0 225 45" version="1.1">
 <defs>
  <clipPath id="clip1">
   <path d="M 56.707031 7.417969 L 216 7.417969 L 216 37.652344 L 56.707031 37.652344 Z M 56.707031 7.417969 "/>
  </clipPath>
  <clipPath id="clip2">
   <path d="M 9 1.652344 L 49.78125 1.652344 L 49.78125 43.347656 L 9 43.347656 Z M 9 1.652344 "/>
  </clipPath>
  <clipPath id="clip3">
   <path d="M 17.15625 29 L 41.625 29 L 41.625 32.097656 L 17.15625 32.097656 Z M 17.15625 29 "/>
  </clipPath>
  <clipPath id="clip4">
   <path d="M 17.15625 12.832031 L 28.5 12.832031 L 28.5 25 L 17.15625 25 Z M 17.15625 12.832031 "/>
  </clipPath>
  <clipPath id="clip5">
   <path d="M 30 13 L 41.625 13 L 41.625 16.5 L 30 16.5 Z M 30 13 "/>
  </clipPath>
  <clipPath id="clip6">
   <path d="M 30 21 L 41.625 21 L 41.625 25 L 30 25 Z M 30 21 "/>
  </clipPath>
 </defs>
 <g id="surface1">
  <g clip-path="url(#clip1)" clip-rule="nonzero">
   <path style=" stroke:none;fill-rule:nonzero;fill:rgb(100%,100%,100%);fill-opacity:1;" d="M 56.707031 7.945312 C 56.707031 7.558594 56.917969 7.417969 57.234375 7.417969 L 74.496094 7.417969 C 74.777344 7.417969 74.917969 7.558594 74.917969 7.875 L 74.917969 9.878906 C 74.917969 10.230469 74.707031 10.371094 74.390625 10.371094 L 60.996094 10.371094 C 60.714844 10.371094 60.503906 10.546875 60.503906 10.828125 L 60.503906 20.742188 C 60.503906 21.023438 60.644531 21.164062 60.925781 21.164062 L 71.4375 21.164062 C 71.71875 21.164062 71.859375 21.304688 71.859375 21.621094 L 71.859375 23.695312 C 71.859375 23.976562 71.71875 24.046875 71.4375 24.046875 L 60.925781 24.046875 C 60.644531 24.046875 60.503906 24.1875 60.503906 24.503906 L 60.503906 36.703125 C 60.503906 36.984375 60.363281 37.195312 59.976562 37.195312 L 57.304688 37.195312 C 57.058594 37.195312 56.917969 37.125 56.847656 37.054688 C 56.777344 36.984375 56.707031 36.84375 56.707031 36.597656 Z M 88.171875 34.628906 C 87.152344 35.578125 86.132812 36.316406 84.972656 36.84375 C 83.882812 37.335938 82.546875 37.582031 81.175781 37.582031 C 79.136719 37.582031 77.554688 37.054688 76.359375 36.035156 C 75.199219 34.910156 74.636719 33.503906 74.636719 31.816406 C 74.636719 30.339844 74.988281 29.144531 75.796875 28.125 C 76.605469 27.070312 77.765625 26.261719 79.277344 25.664062 C 80.824219 24.996094 82.722656 24.714844 84.972656 24.574219 L 88.03125 24.363281 C 88.171875 24.257812 88.3125 24.1875 88.453125 24.117188 C 88.59375 24.046875 88.699219 23.90625 88.699219 23.695312 L 88.699219 22.640625 C 88.699219 21.164062 88.242188 20.003906 87.363281 19.160156 C 86.484375 18.351562 85.253906 17.929688 83.8125 17.929688 C 82.652344 17.929688 81.632812 18.210938 80.683594 18.738281 C 79.734375 19.265625 78.925781 20.074219 78.1875 21.164062 C 78.046875 21.234375 77.976562 21.304688 77.90625 21.375 C 77.835938 21.480469 77.765625 21.480469 77.625 21.375 L 75.410156 20.636719 C 75.410156 20.566406 75.339844 20.496094 75.269531 20.425781 C 75.269531 20.355469 75.269531 20.214844 75.410156 20.003906 C 76.148438 18.667969 77.238281 17.472656 78.714844 16.734375 C 80.085938 15.925781 81.914062 15.46875 83.953125 15.46875 C 85.710938 15.46875 87.152344 15.785156 88.3125 16.277344 C 89.472656 16.875 90.351562 17.683594 90.949219 18.667969 C 91.511719 19.757812 91.828125 20.953125 91.828125 22.359375 L 91.828125 36.597656 C 91.828125 36.84375 91.828125 36.984375 91.757812 37.054688 C 91.652344 37.125 91.511719 37.195312 91.300781 37.195312 L 89.332031 37.195312 C 89.121094 37.195312 88.980469 37.125 88.980469 36.984375 C 88.839844 36.914062 88.839844 36.773438 88.769531 36.527344 L 88.769531 34.699219 C 88.699219 34.3125 88.453125 34.3125 88.171875 34.628906 Z M 88.699219 27 C 88.699219 26.578125 88.453125 26.332031 88.101562 26.332031 L 85.535156 26.578125 C 84.304688 26.648438 83.214844 26.789062 82.335938 27.070312 C 81.316406 27.316406 80.507812 27.667969 79.875 28.054688 C 79.207031 28.40625 78.785156 28.933594 78.398438 29.460938 C 78.046875 30.023438 77.90625 30.691406 77.90625 31.359375 C 77.90625 32.554688 78.257812 33.433594 79.066406 34.101562 C 79.875 34.769531 80.964844 35.121094 82.335938 35.121094 C 83.144531 35.121094 84.023438 34.980469 84.761719 34.628906 C 85.535156 34.3125 86.203125 33.960938 86.800781 33.433594 C 87.363281 32.90625 87.820312 32.414062 88.171875 31.886719 C 88.453125 31.359375 88.699219 30.867188 88.699219 30.339844 Z M 101.074219 7.945312 L 101.074219 36.527344 C 101.074219 36.773438 101.003906 36.984375 100.863281 37.054688 C 100.757812 37.125 100.546875 37.195312 100.335938 37.195312 L 98.296875 37.195312 C 97.875 37.195312 97.628906 36.984375 97.628906 36.597656 L 97.699219 7.945312 C 97.699219 7.558594 97.875 7.417969 98.226562 7.417969 L 100.546875 7.417969 C 100.863281 7.417969 101.074219 7.558594 101.074219 7.945312 Z M 125.015625 36.527344 C 125.085938 36.773438 125.15625 36.914062 125.085938 36.984375 C 125.085938 37.125 124.945312 37.195312 124.664062 37.195312 L 121.957031 37.195312 C 121.746094 37.195312 121.605469 37.125 121.535156 37.054688 C 121.394531 36.984375 121.324219 36.914062 121.253906 36.773438 L 115.347656 26.332031 C 115.277344 26.191406 115.207031 26.121094 115.136719 26.050781 C 115.066406 26.050781 114.960938 26.121094 114.820312 26.191406 L 110.671875 30.550781 C 110.53125 30.621094 110.53125 30.761719 110.460938 30.867188 C 110.390625 31.007812 110.390625 31.148438 110.390625 31.359375 L 110.390625 36.527344 C 110.390625 36.773438 110.390625 36.984375 110.25 37.054688 C 110.179688 37.125 109.933594 37.195312 109.652344 37.195312 L 107.683594 37.195312 C 107.402344 37.195312 107.261719 37.125 107.191406 37.054688 C 107.121094 36.984375 107.121094 36.84375 107.121094 36.597656 L 107.121094 7.945312 C 107.121094 7.558594 107.261719 7.417969 107.542969 7.417969 L 109.933594 7.417969 C 110.25 7.417969 110.390625 7.558594 110.390625 7.945312 L 110.390625 26.578125 C 110.390625 26.789062 110.390625 26.859375 110.460938 26.929688 C 110.53125 27 110.601562 26.929688 110.8125 26.71875 L 120.515625 16.453125 C 120.796875 16.066406 121.007812 15.925781 121.324219 15.925781 L 123.714844 15.925781 C 123.925781 15.925781 124.066406 15.996094 124.136719 16.136719 C 124.242188 16.277344 124.066406 16.453125 123.925781 16.664062 L 117.667969 23.167969 C 117.597656 23.238281 117.597656 23.308594 117.597656 23.449219 C 117.527344 23.519531 117.597656 23.695312 117.667969 23.835938 Z M 127.863281 9.949219 L 127.863281 7.875 C 127.863281 7.734375 127.863281 7.558594 127.933594 7.488281 C 128.003906 7.417969 128.074219 7.417969 128.320312 7.417969 L 149.414062 7.417969 C 149.589844 7.417969 149.730469 7.417969 149.800781 7.488281 C 149.871094 7.558594 149.871094 7.734375 149.871094 7.875 L 149.871094 9.949219 C 149.871094 10.230469 149.730469 10.300781 149.414062 10.300781 L 141.398438 10.300781 C 141.117188 10.300781 140.976562 10.441406 140.976562 10.757812 L 140.976562 36.703125 C 140.976562 36.984375 140.835938 37.195312 140.554688 37.195312 L 137.707031 37.195312 C 137.425781 37.195312 137.25 36.984375 137.25 36.703125 L 137.25 10.757812 C 137.25 10.441406 137.109375 10.300781 136.828125 10.300781 L 128.320312 10.300781 C 128.003906 10.300781 127.863281 10.230469 127.863281 9.949219 Z M 159.046875 37.582031 C 157.148438 37.582031 155.390625 37.125 153.878906 36.246094 C 152.332031 35.296875 151.171875 34.03125 150.363281 32.414062 C 149.589844 30.691406 149.132812 28.863281 149.132812 26.71875 C 149.132812 24.503906 149.589844 22.5 150.433594 20.8125 C 151.242188 19.160156 152.402344 17.859375 153.949219 16.945312 C 155.390625 15.996094 157.148438 15.46875 159.117188 15.46875 C 161.085938 15.46875 162.84375 15.996094 164.285156 16.945312 C 165.832031 17.929688 166.921875 19.160156 167.765625 20.882812 C 168.574219 22.570312 169.03125 24.503906 169.03125 26.648438 C 169.03125 28.792969 168.574219 30.691406 167.765625 32.34375 C 166.921875 33.960938 165.726562 35.296875 164.285156 36.246094 C 162.84375 37.125 161.085938 37.582031 159.046875 37.582031 Z M 159.1875 35.050781 C 160.488281 35.050781 161.648438 34.769531 162.597656 34.03125 C 163.617188 33.363281 164.355469 32.414062 164.882812 31.078125 C 165.375 29.8125 165.585938 28.335938 165.585938 26.578125 C 165.585938 24.785156 165.375 23.308594 164.882812 21.972656 C 164.285156 20.742188 163.546875 19.757812 162.597656 19.019531 C 161.648438 18.351562 160.488281 18 159.117188 18 C 157.746094 18 156.550781 18.351562 155.601562 19.019531 C 154.6875 19.757812 153.878906 20.742188 153.351562 21.972656 C 152.789062 23.308594 152.472656 24.785156 152.472656 26.578125 C 152.472656 28.335938 152.789062 29.8125 153.351562 31.078125 C 153.878906 32.414062 154.6875 33.363281 155.601562 34.03125 C 156.550781 34.769531 157.816406 35.050781 159.1875 35.050781 Z M 188.683594 37.195312 C 188.472656 37.195312 188.332031 37.125 188.261719 37.054688 C 188.191406 36.984375 188.121094 36.84375 188.121094 36.597656 L 188.121094 34.910156 C 188.121094 34.769531 188.121094 34.628906 187.945312 34.628906 C 187.875 34.558594 187.734375 34.628906 187.59375 34.769531 C 187.3125 35.050781 186.855469 35.4375 186.363281 35.859375 C 185.835938 36.316406 185.203125 36.773438 184.324219 37.054688 C 183.515625 37.441406 182.566406 37.582031 181.40625 37.582031 C 179.789062 37.582031 178.347656 37.195312 177.046875 36.386719 C 175.710938 35.578125 174.691406 34.382812 173.917969 32.765625 C 173.109375 31.21875 172.722656 29.214844 172.722656 26.859375 C 172.722656 24.644531 173.109375 22.640625 173.917969 20.953125 C 174.691406 19.160156 175.710938 17.929688 177.1875 16.945312 C 178.558594 15.996094 180.175781 15.46875 181.898438 15.46875 C 183.234375 15.46875 184.324219 15.714844 185.132812 16.136719 C 185.976562 16.59375 186.785156 17.121094 187.453125 17.613281 C 187.664062 17.859375 187.804688 17.929688 187.875 17.859375 C 187.945312 17.859375 188.015625 17.613281 188.015625 17.332031 L 188.015625 7.945312 C 188.015625 7.558594 188.191406 7.417969 188.472656 7.417969 L 190.863281 7.417969 C 191.179688 7.417969 191.320312 7.558594 191.320312 7.945312 L 191.320312 36.527344 C 191.320312 36.773438 191.25 36.984375 191.179688 37.054688 C 191.074219 37.125 190.933594 37.195312 190.652344 37.195312 Z M 187.945312 20.636719 C 187.171875 19.757812 186.363281 19.160156 185.554688 18.667969 C 184.675781 18.210938 183.726562 18 182.707031 18 C 181.40625 18 180.316406 18.351562 179.296875 18.949219 C 178.277344 19.617188 177.539062 20.636719 176.976562 21.972656 C 176.378906 23.238281 176.097656 24.855469 176.097656 26.789062 C 176.097656 28.722656 176.378906 30.339844 176.976562 31.605469 C 177.539062 32.765625 178.347656 33.714844 179.296875 34.242188 C 180.246094 34.839844 181.335938 35.121094 182.496094 35.121094 C 183.515625 35.121094 184.464844 34.910156 185.34375 34.382812 C 186.152344 33.890625 186.785156 33.292969 187.3125 32.554688 C 187.734375 31.746094 187.945312 31.007812 187.945312 30.269531 Z M 206.085938 37.582031 C 204.117188 37.582031 202.394531 37.125 200.917969 36.246094 C 199.40625 35.296875 198.210938 34.03125 197.4375 32.414062 C 196.558594 30.691406 196.101562 28.863281 196.101562 26.71875 C 196.101562 24.503906 196.558594 22.5 197.4375 20.8125 C 198.316406 19.160156 199.476562 17.859375 200.917969 16.945312 C 202.464844 15.996094 204.1875 15.46875 206.15625 15.46875 C 208.125 15.46875 209.882812 15.996094 211.324219 16.945312 C 212.800781 17.929688 213.960938 19.160156 214.769531 20.882812 C 215.648438 22.570312 216 24.503906 216 26.648438 C 216 28.792969 215.648438 30.691406 214.769531 32.34375 C 213.960938 33.960938 212.800781 35.296875 211.253906 36.246094 C 209.8125 37.125 208.054688 37.582031 206.085938 37.582031 Z M 206.15625 35.050781 C 207.5625 35.050781 208.722656 34.769531 209.671875 34.03125 C 210.621094 33.363281 211.324219 32.414062 211.851562 31.078125 C 212.34375 29.8125 212.660156 28.335938 212.660156 26.578125 C 212.660156 24.785156 212.34375 23.308594 211.851562 21.972656 C 211.324219 20.742188 210.621094 19.757812 209.671875 19.019531 C 208.652344 18.351562 207.492188 18 206.15625 18 C 204.785156 18 203.625 18.351562 202.675781 19.019531 C 201.65625 19.757812 200.847656 20.742188 200.355469 21.972656 C 199.828125 23.308594 199.546875 24.785156 199.546875 26.578125 C 199.546875 28.335938 199.828125 29.8125 200.355469 31.078125 C 200.847656 32.414062 201.65625 33.363281 202.675781 34.03125 C 203.625 34.769531 204.785156 35.050781 206.15625 35.050781 Z M 206.15625 35.050781 "/>
  </g>
  <g clip-path="url(#clip2)" clip-rule="nonzero">
   <path style=" stroke:none;fill-rule:nonzero;fill:rgb(100%,100%,100%);fill-opacity:1;" d="M 21.164062 43.347656 C 14.449219 43.347656 9 37.792969 9 30.867188 L 9 14.132812 C 9 7.207031 14.449219 1.652344 21.164062 1.652344 L 37.546875 1.652344 C 44.261719 1.652344 49.78125 7.207031 49.78125 14.132812 L 49.78125 30.867188 C 49.78125 37.792969 44.261719 43.347656 37.546875 43.347656 Z M 21.164062 43.347656 "/>
  </g>
  <g clip-path="url(#clip3)" clip-rule="nonzero">
   <path style=" stroke:none;fill-rule:nonzero;fill:rgb(0%,50.196078%,100%);fill-opacity:1;" d="M 40.042969 32.167969 L 18.703125 32.167969 C 17.824219 32.167969 17.15625 31.429688 17.15625 30.550781 C 17.15625 29.742188 17.824219 29.003906 18.703125 29.003906 L 40.042969 29.003906 C 40.886719 29.003906 41.625 29.742188 41.625 30.550781 C 41.625 31.429688 40.886719 32.167969 40.042969 32.167969 Z M 40.042969 32.167969 "/>
  </g>
  <g clip-path="url(#clip4)" clip-rule="nonzero">
   <path style=" stroke:none;fill-rule:nonzero;fill:rgb(0%,50.196078%,100%);fill-opacity:1;" d="M 26.542969 24.785156 L 18.703125 24.785156 C 17.824219 24.785156 17.15625 24.046875 17.15625 23.238281 L 17.15625 14.449219 C 17.15625 13.570312 17.824219 12.832031 18.703125 12.832031 L 26.542969 12.832031 C 27.421875 12.832031 28.089844 13.570312 28.089844 14.449219 L 28.089844 23.238281 C 28.089844 24.046875 27.421875 24.785156 26.542969 24.785156 Z M 20.214844 21.621094 L 25.03125 21.621094 L 25.03125 15.996094 L 20.214844 15.996094 Z M 20.214844 21.621094 "/>
  </g>
  <g clip-path="url(#clip5)" clip-rule="nonzero">
   <path style=" stroke:none;fill-rule:nonzero;fill:rgb(0%,50.196078%,100%);fill-opacity:1;" d="M 40.042969 16.453125 L 32.308594 16.453125 C 31.429688 16.453125 30.761719 15.785156 30.761719 14.90625 C 30.761719 13.992188 31.429688 13.324219 32.308594 13.324219 L 40.042969 13.324219 C 40.886719 13.324219 41.625 13.992188 41.625 14.90625 C 41.625 15.785156 40.886719 16.453125 40.042969 16.453125 Z M 40.042969 16.453125 "/>
  </g>
  <g clip-path="url(#clip6)" clip-rule="nonzero">
   <path style=" stroke:none;fill-rule:nonzero;fill:rgb(0%,50.196078%,100%);fill-opacity:1;" d="M 40.042969 24.363281 L 32.308594 24.363281 C 31.429688 24.363281 30.761719 23.625 30.761719 22.710938 C 30.761719 21.832031 31.429688 21.164062 32.308594 21.164062 L 40.042969 21.164062 C 40.886719 21.164062 41.625 21.832031 41.625 22.710938 C 41.625 23.625 40.886719 24.363281 40.042969 24.363281 Z M 40.042969 24.363281 "/>
  </g>
 </g>
</svg>

